<mxfile host="app.diagrams.net" modified="2023-04-27T11:38:22.272Z" agent="Mozilla/5.0 (Windows NT 10.0; Win64; x64) AppleWebKit/537.36 (KHTML, like Gecko) Chrome/112.0.0.0 Safari/537.36 Edg/112.0.1722.58" etag="oWjqvbyzaww1hBW4m7cq" version="21.2.3" type="device">
  <diagram name="Страница 1" id="Z9K1tNPKtI9AY-vkeQpS">
    <mxGraphModel dx="2193" dy="758" grid="1" gridSize="10" guides="1" tooltips="1" connect="1" arrows="1" fold="1" page="1" pageScale="1" pageWidth="827" pageHeight="1169" math="0" shadow="0">
      <root>
        <mxCell id="0" />
        <mxCell id="1" parent="0" />
        <mxCell id="5Sh11DfWduWXIzgKbaSe-2" style="edgeStyle=orthogonalEdgeStyle;rounded=0;orthogonalLoop=1;jettySize=auto;html=1;exitX=0.5;exitY=1;exitDx=0;exitDy=0;exitPerimeter=0;entryX=0.5;entryY=0;entryDx=0;entryDy=0;" edge="1" parent="1" source="2JxqPy2QXHR2AHmcMR86-1" target="ryswpVJ10NMLdz56twCL-1">
          <mxGeometry relative="1" as="geometry" />
        </mxCell>
        <mxCell id="2JxqPy2QXHR2AHmcMR86-1" value="Начало" style="strokeWidth=2;html=1;shape=mxgraph.flowchart.terminator;whiteSpace=wrap;" parent="1" vertex="1">
          <mxGeometry x="334" y="40" width="160" height="50" as="geometry" />
        </mxCell>
        <mxCell id="5HvoogiQ1ebR22sNOO8Z-6" value="int length = number.Length" style="rounded=1;whiteSpace=wrap;html=1;absoluteArcSize=1;arcSize=0;strokeWidth=2;" parent="1" vertex="1">
          <mxGeometry x="-77" y="190" width="170" height="50" as="geometry" />
        </mxCell>
        <mxCell id="5HvoogiQ1ebR22sNOO8Z-12" value="switch,&lt;br&gt;for (int i = 0; i &amp;lt; length; i++)" style="strokeWidth=2;html=1;shape=mxgraph.flowchart.loop_limit;whiteSpace=wrap;" parent="1" vertex="1">
          <mxGeometry x="-113" y="305" width="206" height="80" as="geometry" />
        </mxCell>
        <mxCell id="5Sh11DfWduWXIzgKbaSe-4" style="edgeStyle=orthogonalEdgeStyle;rounded=0;orthogonalLoop=1;jettySize=auto;html=1;exitX=0.5;exitY=1;exitDx=0;exitDy=0;entryX=0.5;entryY=0;entryDx=0;entryDy=0;" edge="1" parent="1" source="ryswpVJ10NMLdz56twCL-1" target="5Sh11DfWduWXIzgKbaSe-3">
          <mxGeometry relative="1" as="geometry" />
        </mxCell>
        <mxCell id="ryswpVJ10NMLdz56twCL-1" value="Вывод&lt;br&gt;&quot;ПУШКА\n\nВведите координаты пушки\nx = &quot;" style="shape=parallelogram;html=1;strokeWidth=2;perimeter=parallelogramPerimeter;whiteSpace=wrap;rounded=1;arcSize=0;size=0.23;" parent="1" vertex="1">
          <mxGeometry x="215.5" y="140" width="397" height="60" as="geometry" />
        </mxCell>
        <mxCell id="ryswpVJ10NMLdz56twCL-5" value="" style="group" parent="1" vertex="1" connectable="0">
          <mxGeometry x="-259" y="220" width="100" height="60" as="geometry" />
        </mxCell>
        <mxCell id="ryswpVJ10NMLdz56twCL-3" value="" style="strokeWidth=2;html=1;shape=mxgraph.flowchart.loop_limit;whiteSpace=wrap;rotation=-180;" parent="ryswpVJ10NMLdz56twCL-5" vertex="1">
          <mxGeometry width="100" height="60" as="geometry" />
        </mxCell>
        <mxCell id="ryswpVJ10NMLdz56twCL-4" value="switch" style="text;html=1;strokeColor=none;fillColor=none;align=center;verticalAlign=middle;whiteSpace=wrap;rounded=0;" parent="ryswpVJ10NMLdz56twCL-5" vertex="1">
          <mxGeometry x="20" y="15" width="60" height="30" as="geometry" />
        </mxCell>
        <mxCell id="EwrpvE9RAgZ8z1VkeaF3-3" value="system_1 &amp;lt; 2 || system_1 &amp;gt; 16 ||&lt;br&gt;system_2 &amp;lt; 2 || system_2 &amp;gt; 16" style="rhombus;whiteSpace=wrap;html=1;" parent="1" vertex="1">
          <mxGeometry x="-113" y="20" width="254" height="130" as="geometry" />
        </mxCell>
        <mxCell id="EwrpvE9RAgZ8z1VkeaF3-10" value="Да" style="text;html=1;strokeColor=none;fillColor=none;align=center;verticalAlign=middle;whiteSpace=wrap;rounded=0;" parent="1" vertex="1">
          <mxGeometry x="-289" y="70" width="60" height="30" as="geometry" />
        </mxCell>
        <mxCell id="EwrpvE9RAgZ8z1VkeaF3-16" value="Нет" style="text;html=1;strokeColor=none;fillColor=none;align=center;verticalAlign=middle;whiteSpace=wrap;rounded=0;" parent="1" vertex="1">
          <mxGeometry x="-370" y="70" width="60" height="30" as="geometry" />
        </mxCell>
        <mxCell id="EwrpvE9RAgZ8z1VkeaF3-70" value="Конец" style="strokeWidth=2;html=1;shape=mxgraph.flowchart.terminator;whiteSpace=wrap;" parent="1" vertex="1">
          <mxGeometry x="-99" y="450" width="160" height="50" as="geometry" />
        </mxCell>
        <mxCell id="5Sh11DfWduWXIzgKbaSe-6" style="edgeStyle=orthogonalEdgeStyle;rounded=0;orthogonalLoop=1;jettySize=auto;html=1;exitX=0.5;exitY=1;exitDx=0;exitDy=0;entryX=0.5;entryY=0;entryDx=0;entryDy=0;" edge="1" parent="1" source="5Sh11DfWduWXIzgKbaSe-3" target="5Sh11DfWduWXIzgKbaSe-5">
          <mxGeometry relative="1" as="geometry" />
        </mxCell>
        <mxCell id="5Sh11DfWduWXIzgKbaSe-3" value="Ввод&lt;br&gt;int x0" style="shape=parallelogram;html=1;strokeWidth=2;perimeter=parallelogramPerimeter;whiteSpace=wrap;rounded=1;arcSize=0;size=0.23;" vertex="1" parent="1">
          <mxGeometry x="316.75" y="250" width="194.5" height="40" as="geometry" />
        </mxCell>
        <mxCell id="5Sh11DfWduWXIzgKbaSe-5" value="Вывод&lt;br&gt;&quot;y = &quot;" style="shape=parallelogram;html=1;strokeWidth=2;perimeter=parallelogramPerimeter;whiteSpace=wrap;rounded=1;arcSize=0;size=0.23;" vertex="1" parent="1">
          <mxGeometry x="339" y="330" width="150" height="40" as="geometry" />
        </mxCell>
      </root>
    </mxGraphModel>
  </diagram>
</mxfile>
